{"title":"The.Expatriate.2012.BDRip.XVID.AC3.HQ.Hive-CM8","uid":7695510,"size":1636789904,"categoryP":"video","categoryS":"movies","magnet":"?xt=urn:btih:e52b84e396738b2964654a5cfe85fc2c94ab6084&amp;dn=The.Expatriate.2012.BDRip.XVID.AC3.HQ.Hive-CM8&amp;tr=udp%3A%2F%2Ftracker.openbittorrent.com%3A80&amp;tr=udp%3A%2F%2Fopen.demonii.com%3A1337&amp;tr=udp%3A%2F%2Ftracker.coppersurfer.tk%3A6969&amp;tr=udp%3A%2F%2Fexodus.desync.com%3A6969","seeders":1,"leechers":0,"uploader":"Charlie303","files":-1,"time":1349349762,"description":"The.Expatriate.2012.BDRip.XVID.AC3.HQ.Hive-CM8\n\nThx Hive\nCM8 Doing It Right The First Time\n\nSource: Bluray\nVideo: 720x304 @bitrate 1700 2pass\nAudio: English DTS to AC3 5.1 @448\nSample: Yes, included &lt;a href=&quot;\nhttp://www.imdb.com/title/tt1645155/&quot; rel=&quot;nofollow&quot; target=&quot;_NEW&quot;&gt;\nhttp://www.imdb.com/title/tt1645155/&lt;/a&gt;\n\nGeneral\nComplete name: The.Expatriate.2012.BDRip.XVID.AC3.HQ.Hive-CM8.avi\nFormat: AVI\nFormat/Info: Audio Video Interleave\nFile size: 1.51 GiB\nDuration: 1h 40mn\nOverall bit rate: 2 157 Kbps\nWriting application: Nandub v1.0rc2\nWriting library: Nandub build 1853/release\n\nVideo\nID: 0\nFormat: MPEG-4 Visual\nFormat profile: Advanced Simple@L5\nFormat settings, BVOP: 1\nFormat settings, QPel: Yes\nFormat settings, GMC: No warppoints\nFormat settings, Matrix: Default (H.263)\nMuxing mode: Packed bitstream\nCodec ID: XVID\nCodec ID/Hint: XviD\nDuration: 1h 40mn\nBit rate: 1 700 Kbps\nWidth: 720 pixels\nHeight: 304 pixels\nDisplay aspect ratio: 2.35:1\nFrame rate: 25.000 fps\nColor space: YUV\nChroma subsampling: 4:2:0\nBit depth: 8 bits\nScan type: Progressive\nCompression mode: Lossy\nBits/(Pixel*Frame): 0.311\nStream size: 1.19 GiB (79%)\nWriting library: XviD 1.2.1 (UTC 2008-12-04)\n\nAudio\nID: 1\nFormat: AC-3\nFormat/Info: Audio Coding 3\nMode extension: CM (complete main)\nFormat settings, Endianness: Big\nCodec ID: 2000\nDuration: 1h 40mn\nBit rate mode: Constant\nBit rate: 448 Kbps\nChannel(s): 6 channels\nChannel positions: Front: L C R, Side: L R, LFE\nSampling rate: 48.0 KHz\nBit depth: 16 bits\nCompression mode: Lossy\nStream size: 322 MiB (21%)\nAlignment: Split accross interleaves\nInterleave, duration: 40 ms (1.00 video frame)\nInterleave, preload duration: 500 ms\n\nPlot:\nAn ex-CIA agent and his estranged daughter are forced on the run\nwhen his employers mark them both for termination as part of a\nwide-reaching international conspiracy\n\nCast:\nOlga Kurylenko\nAaron Eckhart ... Ben Logan\nLiana Liberato ... Amy\nKate Linder ... Principal Gibbins","torrent":{"xt":"urn:btih:e52b84e396738b2964654a5cfe85fc2c94ab6084","amp;dn":"The.Expatriate.2012.BDRip.XVID.AC3.HQ.Hive-CM8","amp;tr":["udp%3A%2F%2Ftracker.openbittorrent.com%3A80","udp%3A%2F%2Fopen.demonii.com%3A1337","udp%3A%2F%2Ftracker.coppersurfer.tk%3A6969","udp%3A%2F%2Fexodus.desync.com%3A6969"],"infoHash":"e52b84e396738b2964654a5cfe85fc2c94ab6084","infoHashBuffer":{"type":"Buffer","data":[229,43,132,227,150,115,139,41,100,101,74,92,254,133,252,44,148,171,96,132]},"announce":[],"urlList":[]}}